# xmcd CD database file
#
# Track frame offsets:
#	150
#	5871
#	39281
#	56796
#	77580
#	93493
#	104756
#	131679
#	150550
#	171976
#	188761
#	219893
#	234426
#	248888
#
# Disc length: 3857 seconds
#
# Revision: 0
# Processed by: cddbd v1.4PL0 Copyright (c) Steve Scherf et al.
# Submitted via: CDex 1.50beta9
#
DISCID=b80f0f0e
DTITLE=Quetzal and Patrick Bauwens - Carnet d'Emeraude - Les Voix Essentielles
DYEAR=2003
DGENRE=New Age
TTITLE0=Citation
TTITLE1=Nusrat Fateh Ali Khan - Intoxicated
TTITLE2=Dhafer Youssef - Tarannoum
TTITLE3=Jürgen Knieper - La cathédrale des livres
TTITLE4=Madredeus - O Menino
TTITLE5=Emily Van Evera - Divine Love
TTITLE6=Kate Bush - Hello Earth
TTITLE7=Bobby Mc Ferrin (with Lyle Mays) - Common threads
TTITLE8=David Hykes and The Harmonic Choir - The fall
TTITLE9=A Filetta - U Sipolcru
TTITLE10=Lama Gyurme and Jean-Philippe Rykiel - Refuge and Sevenfold Offering
TTITLE11=Trilok Gurtu - Om (extrait)
TTITLE12=Peter Gabriel - Open
TTITLE13=Ryuichi Sakamoto - Acceptance
EXTD=YEAR: 2003
EXTT0=
EXTT1=
EXTT2=
EXTT3=
EXTT4=
EXTT5=
EXTT6=
EXTT7=
EXTT8=
EXTT9=
EXTT10=
EXTT11=
EXTT12=
EXTT13=
PLAYORDER=
